<svg width="27" height="32" viewBox="0 0 27 32" fill="none" xmlns="http://www.w3.org/2000/svg">
<path d="M19.4047 7.73057C16.7698 7.53643 14.5354 9.20271 13.2886 9.20271C12.0239 9.20271 10.0734 7.77257 8.00397 7.81047C5.28864 7.85248 2.78537 9.38968 1.38545 11.8238C-1.43591 16.7212 0.665253 23.9759 3.41285 27.9472C4.75694 29.8912 6.3592 32.0779 8.46497 31.998C10.4924 31.9186 11.2582 30.6856 13.7076 30.6856C16.1556 30.6856 16.8466 31.998 18.9898 31.9565C21.1703 31.918 22.5528 29.9777 23.8867 28.0231C25.431 25.7708 26.0652 23.5902 26.1031 23.4719C26.0544 23.455 21.8511 21.8394 21.8091 16.9973C21.7712 12.9502 25.1135 11.0027 25.2661 10.909C23.3683 8.11576 20.4368 7.8074 19.4047 7.73057ZM17.7783 5.10693C18.897 3.75669 19.6505 1.87117 19.4431 -3.8147e-06C17.8326 0.0624882 15.8851 1.07312 14.7306 2.42284C13.6959 3.62044 12.7872 5.53669 13.0335 7.37303C14.8299 7.51133 16.6601 6.46024 17.7783 5.10693Z" fill="#0C1014"/>
</svg>
