<svg width="120" height="25" viewBox="0 0 120 25" fill="none" xmlns="http://www.w3.org/2000/svg">
<path d="M23.4382 17.88H23.3696L19.176 1.12498H14.2447L10.0685 17.88H9.99988L6.11667 1.12498H0.926758L7.45717 24.582H12.3536L16.6676 8.54821H16.7536L21.0666 24.582H25.9989L32.5119 1.12498H27.3225L23.4382 17.88ZM85.4221 0.746445C79.2364 0.746445 75.5417 4.75054 75.5417 11.4689V14.3046C75.5417 21.0927 79.2195 24.9759 85.4062 24.9759C91.6098 24.9759 94.7022 21.1952 94.7022 16.9682V16.539H90.0445C90.0445 18.9613 88.8412 20.852 85.4897 20.852C82.1228 20.852 80.4724 18.7718 80.4724 14.3046V11.4689C80.4724 7.05302 82.1392 4.83609 85.4559 4.83609C88.5662 4.83609 90.044 6.89832 90.044 9.21821H94.7011V8.97746C94.7022 4.40684 91.2303 0.746445 85.4221 0.746445ZM40.3654 1.12498L32.8038 24.5815H37.6669L39.365 18.6699H46.7851L48.4576 24.5815H53.6649L46.1208 1.12498H40.3654ZM40.4033 15.0617L43.0802 5.74683H43.1319L45.7673 15.0617H40.4033ZM114.326 1.12498V10.5413H104.738V1.12498H99.8742V24.582H104.738V14.5802H114.326V24.582H119.207V1.12498H114.326ZM53.5799 5.1803H60.5569V24.582H65.4032V5.1803H72.3966V1.12498H53.5799V5.1803Z" fill="#0C1014"/>
</svg>
