<svg width="24" height="23" viewBox="0 0 24 23" fill="none" xmlns="http://www.w3.org/2000/svg">
<path d="M16.4647 0H7.83972C3.87078 0 0.652222 3.21856 0.652222 7.1875V15.8125C0.652222 19.7814 3.87078 23 7.83972 23H16.4647C20.4337 23 23.6522 19.7814 23.6522 15.8125V7.1875C23.6522 3.21856 20.4337 0 16.4647 0ZM21.496 15.8125C21.496 18.5869 19.2391 20.8438 16.4647 20.8438H7.83972C5.06535 20.8438 2.80847 18.5869 2.80847 15.8125V7.1875C2.80847 4.41313 5.06535 2.15625 7.83972 2.15625H16.4647C19.2391 2.15625 21.496 4.41313 21.496 7.1875V15.8125Z" fill="white"/>
</svg>
