<svg width="24" height="19" viewBox="0 0 24 19" fill="none" xmlns="http://www.w3.org/2000/svg">
<path d="M23.9699 2.36856C23.1146 2.74375 22.2032 2.99244 21.253 3.11319C22.2305 2.52956 22.9766 1.61244 23.3273 0.507C22.416 1.05037 21.4097 1.43419 20.3373 1.64838C19.472 0.726938 18.2386 0.15625 16.8931 0.15625C14.2826 0.15625 12.181 2.27513 12.181 4.87269C12.181 5.24644 12.2126 5.60581 12.2902 5.94794C8.37016 5.75675 4.90147 3.87794 2.57128 1.01588C2.16447 1.72169 1.92585 2.52956 1.92585 3.39925C1.92585 5.03225 2.76678 6.47981 4.02028 7.31787C3.26272 7.3035 2.51953 7.08356 1.88991 6.73712C1.88991 6.7515 1.88991 6.77019 1.88991 6.78887C1.88991 9.08025 3.52435 10.9835 5.66766 11.4219C5.28385 11.5269 4.86553 11.5772 4.43141 11.5772C4.12953 11.5772 3.82478 11.5599 3.53872 11.4967C4.14966 13.364 5.88329 14.7368 7.94466 14.7814C6.34041 16.0363 4.30347 16.7924 2.09835 16.7924C1.71166 16.7924 1.34078 16.7752 0.96991 16.7277C3.0586 18.0747 5.53397 18.8438 8.20341 18.8438C16.8802 18.8438 21.6239 11.6562 21.6239 5.42613C21.6239 5.21769 21.6167 5.01644 21.6067 4.81663C22.5425 4.1525 23.3288 3.32306 23.9699 2.36856Z" fill="#1890FF"/>
</svg>
